<?xml version="1.0" encoding="utf-8"?><svg viewBox="0 0 2000 2000" xmlns="http://www.w3.org/2000/svg" xmlns:xlink="http://www.w3.org/1999/xlink"><style>:root>svg{display:none}:root>svg:target{display:block}</style><svg viewBox="0 0 22 22" id="footer-icon-facebook" xmlns="http://www.w3.org/2000/svg"><path d="M16.5 1.83h-2.75c-1.22 0-2.38.48-3.24 1.32a4.45 4.45 0 00-1.34 3.18v2.7H6.42v3.59h2.75v7.19h3.66v-7.2h2.75l.92-3.59h-3.67v-2.7a.904.904 0 01.92-.89h2.75v-3.6z" stroke="#666" stroke-width="1.1" stroke-linecap="round" stroke-linejoin="round"/></svg><svg viewBox="0 0 20 20" id="footer-icon-instagram" xmlns="http://www.w3.org/2000/svg"><path d="M9.98.08c1.67 0 3.03.02 4.08.06.9.04 1.7.2 2.4.47a4.98 4.98 0 012.9 2.89c.27.7.43 1.5.46 2.4.04 1.05.06 2.41.06 4.08s-.02 3.03-.06 4.08c-.03.9-.2 1.7-.46 2.4a4.99 4.99 0 01-2.9 2.9c-.7.27-1.5.43-2.4.46-1.05.04-2.41.06-4.08.06s-3.03-.02-4.08-.06a7.5 7.5 0 01-2.4-.46 4.98 4.98 0 01-2.9-2.9 7.5 7.5 0 01-.46-2.4C.1 13.01.08 11.65.08 9.98S.1 6.95.14 5.9c.04-.9.2-1.7.47-2.4A4.98 4.98 0 013.5.6 7.5 7.5 0 015.9.15C6.95.1 8.3.08 9.98.08zm0 1.29c-1.73 0-3.14.02-4.24.06-.7.02-1.35.15-1.95.37-.94.39-1.6 1.05-2 1.99-.21.6-.34 1.25-.36 1.95-.04 1.1-.06 2.5-.06 4.24 0 1.73.02 3.14.06 4.24.02.7.15 1.35.37 1.95.39.94 1.05 1.6 1.99 2 .6.22 1.25.34 1.95.37 1.1.03 2.5.05 4.24.05 1.73 0 3.14-.02 4.24-.05.7-.03 1.35-.15 1.95-.38.94-.39 1.6-1.05 2-1.99.22-.6.34-1.25.37-1.95.03-1.1.05-2.5.05-4.24 0-1.73-.02-3.14-.05-4.24a6.27 6.27 0 00-.38-1.95 3.57 3.57 0 00-1.99-2 6.27 6.27 0 00-1.95-.36c-1.1-.04-2.5-.06-4.24-.06zm0 12.58c1.1 0 2.03-.4 2.8-1.17a3.82 3.82 0 001.17-2.8c0-1.1-.4-2.03-1.17-2.8a3.82 3.82 0 00-2.8-1.16c-1.1 0-2.03.38-2.8 1.16a3.82 3.82 0 00-1.16 2.8c0 1.1.38 2.03 1.16 2.8.77.78 1.7 1.17 2.8 1.17zm0-9.05c1.4 0 2.6.5 3.6 1.49a4.9 4.9 0 011.48 3.59c0 1.4-.5 2.6-1.49 3.6a4.9 4.9 0 01-3.59 1.48c-1.4 0-2.6-.5-3.6-1.49A4.9 4.9 0 014.9 9.98c0-1.4.5-2.6 1.49-3.6A4.9 4.9 0 019.98 4.9zm6.48-.2a1.19 1.19 0 01-1.21 1.17c-.32 0-.6-.1-.83-.33-.22-.23-.34-.5-.34-.83a1.19 1.19 0 011.17-1.21c.33 0 .61.12.85.36s.36.52.36.85z" fill="#666"/></svg><svg viewBox="0 0 28 22" id="footer-icon-vkontakte" xmlns="http://www.w3.org/2000/svg"><path d="M.09 5.49c0-.86.51-1.32 1.54-1.38l3.97.02c.27 0 .44.13.53.38.41 1.26.87 2.34 1.38 3.26.5.9 1.16 1.96 1.98 3.15.07.15.19.23.35.23.12 0 .22-.06.29-.18l.08-.27.03-4.36c0-.3-.08-.5-.23-.6-.15-.1-.43-.17-.84-.22-.32-.06-.48-.24-.48-.56 0-.07.01-.12.03-.15.37-1.09 1.44-1.63 3.2-1.63l1.49-.03c.67 0 1.23.16 1.68.48.44.32.66.82.66 1.5v5.72c.13.08.24.12.35.12.26 0 .5-.15.7-.45 1.94-2.58 3-4.3 3.16-5.18l.05-.13c.13-.25.33-.47.62-.65.28-.19.53-.31.74-.38a.55.55 0 01.24-.05h4.13l.27.03c.35 0 .63.16.83.47.07.1.11.21.14.33a2.42 2.42 0 01.07.56v.17a6.1 6.1 0 01-.95 2.2c-.5.78-1.15 1.62-1.93 2.53-.78.9-1.27 1.5-1.46 1.78-.16.2-.24.39-.24.56 0 .13.07.28.2.45l3.9 4.63c.21.27.32.56.32.88 0 .38-.16.7-.48.95-.32.25-.7.4-1.15.43l-.45.03h-4.15a.86.86 0 01-.11.02c-.4 0-.76-.16-1.1-.48l-2.5-2.96a1.38 1.38 0 00-.37-.33 38.47 38.47 0 00-.54 2.24l-.08.42a1.4 1.4 0 01-1.11 1.06l-.38.03h-2.6c-1.48 0-2.95-.64-4.42-1.92a19.3 19.3 0 01-3.95-4.94A47.52 47.52 0 01.22 6.22a1.92 1.92 0 01-.13-.73zm16 6.51c-.37 0-.7-.1-1-.29a.9.9 0 01-.46-.79V5.14c0-.34-.09-.58-.26-.72-.18-.14-.5-.21-.94-.21l-1.52.05c-.76 0-1.34.12-1.73.37.78.36 1.18.93 1.18 1.71v4.43a1.5 1.5 0 01-.54 1.04c-.32.28-.67.42-1.06.42-.54 0-.94-.24-1.23-.73a26.16 26.16 0 01-3.09-5.63L5.2 5.2H1.66c-.23 0-.36.01-.39.04-.03.02-.04.1-.04.21 0 .15.02.31.05.48l.56 1.4c1.5 3.64 3.12 6.51 4.87 8.6 1.75 2.1 3.46 3.15 5.15 3.15h2.67c.1 0 .18-.03.24-.09.05-.06.1-.17.13-.34l.05-.25.5-2.21c.15-.3.27-.5.38-.6.2-.19.43-.28.7-.28.42 0 .86.24 1.3.73l2.26 2.71c.15.22.3.33.46.33h4.4c.53 0 .8-.13.8-.38a.47.47 0 00-.09-.25L21.8 13.9c-.3-.35-.45-.73-.45-1.13 0-.4.14-.79.42-1.16.23-.33.68-.9 1.35-1.67.66-.78 1.25-1.51 1.74-2.19.5-.68.83-1.3.99-1.85l.08-.32a.37.37 0 01-.03-.17c0-.07 0-.14-.02-.19h-4.19c-.26.1-.48.25-.64.46l-.16.47c-.44 1.16-1.6 2.95-3.49 5.36-.37.34-.8.5-1.3.5z" fill="#666"/></svg><svg viewBox="0 0 27 34" id="footer-logo-html" xmlns="http://www.w3.org/2000/svg"><path d="M13.64.02L13.5 0 0 1.4v24.61L13.5 34 27 26.01V1.41L13.64 0zm11.6 25L13.5 31.96 1.77 25.02v-10.1l11.68 6.93.02 1.25-8.02-4.75v1.23l8.04 4.8.02 1.3-8.05-4.76v1.22l8.04 4.81 8.12-4.83V16.9l3.62-2.15v10.26zm0-11.57L22 15.33l-1.48.88-7.06-4.19-.01 1.23 6.04 3.57-.06.03-.13.07-.86.5-4.98-2.95-.01 1.22 3.93 2.33-.93.61-.02.01-2.97-1.74-.01 1.23 1.94 1.13-1.98 1.19L1.8 13.58l11.63-6.96 11.8 6.83zm0-1.22L13.43 5.3 1.77 12.22V2.99L13.5 1.76 25.23 3v9.24z" fill="#666"/></svg><svg viewBox="0 0 60 60" id="htmlacademy" xmlns="http://www.w3.org/2000/svg"><path d="M30.2 5H30L10.3 7.1v36.2L30 55l19.7-11.7V7.1L30.2 5zm17 36.8L30 52 12.8 41.8V27l17.1 10.2V39l-11.7-7v1.8L30 40.9v1.9l-11.8-7v1.8l11.8 7 11.9-7.1v-7.6l5.3-3.2v15.1zm-.1-17l-4.7 2.8-2.2 1.3-10.3-6.1v1.8l8.8 5.3h-.1l-.2.1-1.3.7-7.3-4.3v1.8l5.8 3.4-1.4.9-4.3-2.6v1.8l2.9 1.7-2.9 1.7-17-10.1 17-10.2 17.2 10zm.1-1.8L29.9 12.8 12.8 23V9.4L30 7.6l17.2 1.8V23z"/></svg><svg fill="none" viewBox="0 0 68 29" id="index-cat-pro" xmlns="http://www.w3.org/2000/svg"><path d="M61.56 2.88A7.6 7.6 0 0163.8.58c.5-.35.8-.35 1.1.3.4.95.75 1.95.45 3a1.14 1.14 0 00.2 1.05c.3.4.55.8.8 1.15a3.13 3.13 0 01.45 3.1c-.18.5-.22 1.03-.1 1.55.1.5.1 1 0 1.5a1.87 1.87 0 01-1.35 1.6 2.6 2.6 0 00-1.6 1 .53.53 0 01-.45.25c-.6.1-2.1-1.25-2.1-1.85v-.3c.05-1.8-.05-1.95-1.7-2.7a2.2 2.2 0 01-.9-.6c-.3-.4-.7-.35-1.15-.2-.45.15-.7.45-.65.95.15 1.2.2 2.43.15 3.65 0 .14.04.27.1.4 1.55 2.25 2.15 4.9 2.9 7.45.6 1.95 1.7 3 3.7 3.15.32.02.64.07.95.15a2.08 2.08 0 011.7 1.6c.35 1.05.15 1.3-.9 1.3h-3.25c-.42.02-.83-.12-1.15-.4a5.86 5.86 0 00-1.7-1 3.63 3.63 0 01-1.7-1.3 14.3 14.3 0 00-2-2.25c-1.4-1.45-2.9-2.85-4.2-4.35a5.69 5.69 0 01-1.6-3.8c0-.45-.1-.65-.6-.45a.96.96 0 01-.5.15c-1.4 0-2.1.85-2.6 2.1-.45 1.05-1.05 2.05-1.6 3.1a5.2 5.2 0 00-.5 2.1c0 1.2.3 1.6 1.4 2 .7.25 1.35.5 1.7 1.2.4.8.3 1-.55 1.05h-3.4a.94.94 0 01-.95-.55l-.9-1.5a3.02 3.02 0 01-.35-2.7c.22-.87.23-1.78.05-2.65a4.21 4.21 0 01.85-3.5c.3-.35.3-.5-.2-.6a25.03 25.03 0 01-5.95-2.1c-1.6-.6-1.9-.5-2.35 1.15-.4 1.4-.8 2.8-1.1 4.25-.35 1.6.05 3.1.55 4.6.2.6.8.55 1.25.7 1 .3 1.85.7 2.25 1.75.35.8.3.9-.55.9-.85 0-1.7-.05-2.6 0-.76.01-1.5-.23-2.1-.7-2.4-1.6-3.1-4.05-3.3-6.7-.1-1.65-1-2.95-2.05-4.2-.2-.25-.4-.35-.7-.15-1.07.59-2.2 1.1-3.35 1.5a13.36 13.36 0 00-6.1 4.4 5.32 5.32 0 00-1.1 2.55c-.15.9.1 1.3 1 1.55s1.35.75 1.45 1.7c.05.4-.1.6-.5.6h-4.05a.82.82 0 01-.65-.4 4.28 4.28 0 01-.95-2.75 25.3 25.3 0 01.45-5.15 3.15 3.15 0 011.7-2.4c2.95-1.4 4.5-4.05 5.9-6.8.3-.55.05-.65-.45-.6-1.4.2-2.73.74-3.85 1.6a35.32 35.32 0 00-4.15 3.55 8.33 8.33 0 01-5.15 2.45c-3.65.2-5.35-1.85-5.2-5.15.03-1.13.46-2.2 1.2-3.05a2.12 2.12 0 012.25-.75c.75.2.95.6.65 1.35-.15.3-.35.55-.5.85-.22.3-.39.64-.5 1-.55 1.5.2 2.55 1.75 2.7 1.65.15 3-.55 4.25-1.55 1.5-1.2 2.85-2.6 4-4.15a10.4 10.4 0 017.2-4.05c1.15-.15 2.15-.65 3.25-.95 2.06-.63 4.2-.93 6.35-.9a6.5 6.5 0 002.9-.55c2.45-1 5-1 7.55-.5 2 .4 4 .9 5.95 1.4 1.16.21 2.35.18 3.5-.1 2.2-.56 4.44-.9 6.7-1a9.08 9.08 0 014.3.85c1 .45 1 .45.75 1.4z" fill="#000"/></svg><svg fill="none" viewBox="0 0 36 50" id="index-cat-slim" xmlns="http://www.w3.org/2000/svg"><path d="M28.2 0H28c-.32.19-.59.47-.74.82a8.03 8.03 0 00-.67 1.76.84.84 0 01-.76.69 3.77 3.77 0 00-2.69 1.95c-.37.66-.69 1.35-.95 2.06-.73 1.9-1.29 3.85-1.98 5.77-.32.87-.34.87-1.32.87-1.16 0-1.08-.18-1.1 1.1 0 .41.13.62.56.6.13 0 .33-.07.39.1.05.18-.13.26-.23.36a4.63 4.63 0 01-2.23 1.26c-.97.26-1.97.47-2.92.79-2.45.82-4.7 1.96-6.46 3.9a14.44 14.44 0 00-2.44 4.04c-1.89 4.46-2.8 9.15-3.51 13.88a97.06 97.06 0 00-.75 6.7C.1 47.75 0 48.88 0 50h17.14c.03-.23-.01-.46-.12-.66a2.58 2.58 0 00-1.97-1.58c-.36-.08-.4-.2-.18-.48.36-.48.64-1.02.82-1.6.84-2.47 1.16-5.06 1.57-7.62.23-1.96.83-3.85 1.77-5.59a11.13 11.13 0 012.87-3.28c.43-.32.45-.32.52.23.05.36.06.74.09 1.11.15 2.44.12 4.88-.1 7.31-.2 1.88-.22 3.78-.07 5.67.2 2.2.59 4.36 1.16 6.49h6.84a2.8 2.8 0 00-2.18-2.29c-.64-.1-1.3-.07-1.93.1-.31.08-.44 0-.46-.33-.22-2.73-.04-5.47.51-8.16a91.8 91.8 0 001.57-9.37c.14-1.27.54-2.5 1.18-3.6.6-1.1 1.14-2.23 1.74-3.33a3.03 3.03 0 00.22-2.67c-.14-.37-.27-.74-.44-1.1-.52-1-1.03-2-1.5-3-.26-.52-.2-.59.36-.6.84 0 .84 0 .86-.85v-.34c0-.35-.14-.55-.52-.51h-.78c-.36 0-.46-.15-.37-.52a3.22 3.22 0 012.64-2.28 11.3 11.3 0 013.4.22.51.51 0 00.65-.33 40 40 0 01.66-1.55.52.52 0 00-.05-.58c-1.65-2.1-3.43-4.05-5.87-5.3a.77.77 0 01-.45-.58 9.81 9.81 0 00-.65-2.14A1.8 1.8 0 0028.2 0z" fill="#000"/></svg><svg fill="none" viewBox="0 0 33 33" id="index-icon-alarm" xmlns="http://www.w3.org/2000/svg"><circle cx="21.7" cy="11.33" fill="#fff" r="1.09"/><circle cx="10.83" cy="11.33" fill="#fff" r="1.09"/><circle cx="10.83" cy="24.35" fill="#fff" r="1.09"/><circle cx="16.27" cy="26.52" fill="#fff" r="1.09"/><circle cx="7.57" cy="17.77" fill="#fff" r="1.09"/><circle cx="24.97" cy="17.77" fill="#fff" r="1.09"/><circle cx="21.7" cy="24.35" fill="#fff" r="1.09"/><mask id="ha" fill="#fff"><path fill-rule="evenodd" clip-rule="evenodd" d="M21.42 29.06c.41-.2.9-.13 1.22.2l1.82 1.87a.68.68 0 00.98-.95l-1.36-1.4c-.42-.43-.36-1.14.1-1.55a12.75 12.75 0 004.32-9.62C28.5 10.65 23.02 5 16.27 5 9.5 5 4.04 10.65 4.04 17.61c0 3.82 1.64 7.24 4.23 9.55.45.4.51 1.11.1 1.55l-1.44 1.47a.68.68 0 10.97.95l1.88-1.93c.32-.33.82-.4 1.23-.2a11.88 11.88 0 0010.41.06zm-5.15-.23c6 0 10.87-5.02 10.87-11.22 0-6.19-4.87-11.2-10.87-11.2-6 0-10.88 5.01-10.88 11.2 0 6.2 4.87 11.22 10.88 11.22zM15.5 17.3V9.94a.78.78 0 111.56 0v8.18a.8.8 0 01-.8.8.76.76 0 01-.76-.75v-.87z"/></mask><path fill-rule="evenodd" clip-rule="evenodd" d="M21.42 29.06c.41-.2.9-.13 1.22.2l1.82 1.87a.68.68 0 00.98-.95l-1.36-1.4c-.42-.43-.36-1.14.1-1.55a12.75 12.75 0 004.32-9.62C28.5 10.65 23.02 5 16.27 5 9.5 5 4.04 10.65 4.04 17.61c0 3.82 1.64 7.24 4.23 9.55.45.4.51 1.11.1 1.55l-1.44 1.47a.68.68 0 10.97.95l1.88-1.93c.32-.33.82-.4 1.23-.2a11.88 11.88 0 0010.41.06zm-5.15-.23c6 0 10.87-5.02 10.87-11.22 0-6.19-4.87-11.2-10.87-11.2-6 0-10.88 5.01-10.88 11.2 0 6.2 4.87 11.22 10.88 11.22zM15.5 17.3V9.94a.78.78 0 111.56 0v8.18a.8.8 0 01-.8.8.76.76 0 01-.76-.75v-.87z" fill="#fff"/><path d="M9.78 29.2l2.87 2.79-2.87-2.8zm1.23-.2l1.77-3.58L11 29zm-3.1 2.13l-2.87-2.8 2.86 2.8zm-.98-.95l2.86 2.79-2.86-2.8zm17.15-1.4l-2.86 2.8 2.86-2.8zm.1-1.55l-2.63-3 2.63 3zm-15.9-.07L5.6 30.15l2.66-2.99zm.08 1.55L5.5 25.9l2.86 2.8zm17.08 1.47l2.87-2.8-2.87 2.8zm-.98.95l2.87-2.8-2.87 2.8zm-1.82-1.88l-2.87 2.8 2.87-2.8zm-1.22-.2l-1.73-3.6 1.73 3.6zm-1.65 3l1.83 1.87 5.73-5.58-1.83-1.88-5.73 5.58zm8.54-4.66l-1.36-1.4-5.73 5.59 1.36 1.39 5.73-5.58zm-1.5 2.85a16.75 16.75 0 005.69-12.63h-8a8.75 8.75 0 01-2.95 6.61l5.27 6.02zm5.69-12.63C32.5 8.56 25.35 1 16.27 1v8c4.43 0 8.23 3.74 8.23 8.61h8zM16.27 1C7.19 1 .04 8.56.04 17.61h8c0-4.87 3.8-8.61 8.23-8.61V1zM.04 17.61c0 4.98 2.14 9.48 5.57 12.54l5.32-5.97a8.75 8.75 0 01-2.9-6.57h-8zm5.46 8.3L4.06 27.4l5.73 5.58 1.44-1.47L5.5 25.9zm5.27 8.01l1.88-1.93-5.73-5.58-1.88 1.93 5.73 5.58zM9.25 32.6a15.88 15.88 0 007.02 1.63v-8a7.88 7.88 0 01-3.5-.81L9.26 32.6zm7.02 1.63c2.45 0 4.79-.56 6.88-1.57l-3.46-7.2c-1.04.5-2.2.77-3.42.77v8zm0-1.4c8.33 0 14.87-6.93 14.87-15.22h-8c0 4.1-3.2 7.22-6.87 7.22v8zM31.14 17.6c0-8.28-6.54-15.2-14.87-15.2v8c3.68 0 6.87 3.1 6.87 7.2h8zM16.27 2.41C7.94 2.4 1.39 9.32 1.39 17.6h8c0-4.1 3.2-7.2 6.88-7.2v-8zM1.39 17.6c0 8.29 6.55 15.22 14.88 15.22v-8c-3.68 0-6.88-3.11-6.88-7.22h-8zm11.68-.31v.54h8v-.54h-8zm0 .54v.28h8v-.28h-8zm6.44.33v-.33h-8v.33h8zm0-.33v-.54h-8v.54h8zm0-.54v-3.8h-8v3.8h8zm0-3.8V9.94h-8v3.56h8zm-6.44-3.56v3.56h8V9.94h-8zm0 3.56v3.8h8v-3.8h-8zm3.22-8.34a4.78 4.78 0 00-4.78 4.78h8a3.22 3.22 0 01-3.22 3.22v-8zm-3.22 12.96a3.2 3.2 0 013.2-3.2v8a4.8 4.8 0 004.8-4.8h-8zM12.65 32c-1 1.02-2.4 1.1-3.4.6l3.53-7.17a5.06 5.06 0 00-5.86.99L12.65 32zm-8.59 1.93a4.68 4.68 0 006.71 0l-5.73-5.58a3.32 3.32 0 014.75 0l-5.73 5.58zm0-6.53a4.68 4.68 0 000 6.53l5.73-5.58a3.32 3.32 0 010 4.63L4.06 27.4zM26.95 26a2.93 2.93 0 01-.13 4.25l-5.27-6.02a5.08 5.08 0 00-.33 7.36L26.95 26zM16.29 13.16a3.22 3.22 0 01-3.22-3.22h8a4.78 4.78 0 00-4.78-4.78v8zM5.61 30.15a2.93 2.93 0 01-.11-4.24l5.73 5.59a5.07 5.07 0 00-.3-7.32l-5.32 5.97zm22.7 3.77a4.68 4.68 0 000-6.53l-5.73 5.58a3.32 3.32 0 010-4.63l5.73 5.58zm-6.71 0a4.68 4.68 0 006.7 0l-5.72-5.58a3.32 3.32 0 014.75 0l-5.73 5.58zm-5.33-19a3.24 3.24 0 013.24 3.25h-8a4.76 4.76 0 004.76 4.76v-8zm9.23 11.54a5.06 5.06 0 00-5.8-1l3.45 7.2c-1 .49-2.4.4-3.38-.62l5.73-5.58z" fill="#fff" mask="url(#ha)"/><path fill="#fff" d="M15.5 6V2H17v4z"/><rect x="8.5" y="2" width="15.5" height="1.5" rx=".75" fill="#fff"/></svg><svg fill="none" viewBox="0 0 25 30" id="index-icon-eat" xmlns="http://www.w3.org/2000/svg"><path fill-rule="evenodd" clip-rule="evenodd" d="M18.62.08a1 1 0 011.09.21c.9.91 2.1 2.88 3.06 5.92A42.6 42.6 0 0124.5 19a1 1 0 01-1 1H20v9a1 1 0 11-2 0V1a1 1 0 01.62-.92zM20 18h2.5a39.62 39.62 0 00-1.64-11.19 22.4 22.4 0 00-.86-2.3V18zM6 0a1 1 0 011 1v28a1 1 0 11-2 0V1a1 1 0 011-1z" fill="#fff"/><path fill-rule="evenodd" clip-rule="evenodd" d="M1.5 0a1 1 0 011 1v5.5c0 .56.2 1.32.7 1.92.48.56 1.31 1.08 2.8 1.08a1 1 0 110 2 5.41 5.41 0 01-4.33-1.8A5.07 5.07 0 01.5 6.5V1a1 1 0 011-1z" fill="#fff"/><path fill-rule="evenodd" clip-rule="evenodd" d="M10.5 0a1 1 0 00-1 1v5.5c0 .56-.2 1.32-.7 1.92C8.32 8.98 7.49 9.5 6 9.5a1 1 0 000 2c2.01 0 3.43-.73 4.33-1.8a5.07 5.07 0 001.17-3.2V1a1 1 0 00-1-1z" fill="#fff"/></svg><svg fill="none" viewBox="0 0 30 32" id="index-icon-leaf" xmlns="http://www.w3.org/2000/svg"><g clip-path="url(#jclip0_2403_796)"><path d="M27.78 2.77a.95.95 0 00-.92-.77c-4.94.03-16.95.92-21.8 8.38-2.51 3.88-2.73 8.91-.64 14.96l.07.13a25.93 25.93 0 00-1.04 3.32c-.11.54.21 1.07.72 1.19l.2.02c.43 0 .82-.32.91-.79.02-.1 2.4-10.37 10.85-16.38.44-.3.55-.93.26-1.38a.9.9 0 00-1.3-.28c-4.78 3.4-7.73 8-9.47 11.65-1.24-4.57-.91-8.37.99-11.3 3.74-5.76 12.62-7.15 17.98-7.45-1.15 1.8-2.41 5.1-2.41 10.93 0 3.12-.83 5.52-2.47 7.14-2.62 2.6-6.88 2.83-10 2.58-.5-.04-.96.38-1 .93-.04.55.35 1.03.87 1.07.62.05 1.28.08 1.98.08 3.17 0 6.87-.66 9.43-3.2 2.03-2 3.06-4.9 3.06-8.6 0-9.1 3.22-11.1 3.23-11.1.4-.21.6-.68.5-1.13z" fill="#fff"/></g><defs><clipPath id="jclip0_2403_796"><path fill="#fff" d="M0 0h30v32H0z"/></clipPath></defs></svg><svg fill="none" viewBox="0 0 30 33" id="index-icon-tub" xmlns="http://www.w3.org/2000/svg"><path d="M21.28 19.47c-1.71 0-3.1 1.48-3.1 3.3 0 1.83 1.4 3.3 3.1 3.3 1.7 0 3.08-1.47 3.08-3.3 0-1.82-1.38-3.3-3.08-3.3zm0 5.02c-.89 0-1.6-.77-1.6-1.71 0-.95.71-1.72 1.6-1.72.88 0 1.6.77 1.6 1.72 0 .94-.72 1.7-1.6 1.7zM12.1.99c-1.75 0-3.18 1.52-3.18 3.4 0 1.89 1.43 3.41 3.19 3.41s3.18-1.52 3.18-3.4c0-1.89-1.42-3.41-3.18-3.41zm0 5.48c-1.06 0-1.93-.93-1.93-2.07 0-1.15.87-2.07 1.94-2.07 1.07 0 1.93.92 1.93 2.07 0 1.14-.86 2.07-1.93 2.07zM8.73 18.61c-1.3 0-2.34 1.12-2.34 2.5 0 1.39 1.04 2.5 2.34 2.5 1.3 0 2.34-1.11 2.34-2.5 0-1.38-1.05-2.5-2.34-2.5zM8.5 20.5c-.46 0 1.16 1.1 1.16.61 0-.49-1.62.39-1.16.39.46 0 1.06-.88 1.06-.39 0 .5-.6-.61-1.06-.61zM19 10.76s3.04-.84 6.18 1.5c.9.76 1.76 1.33 1.15 2.12-.34.34-.64.66-1.72-.53A6.92 6.92 0 0019 12.41c-1.13.24-1.96.55-3.56 2.15a8.27 8.27 0 01-6.5 2.5c-2.52-.24-3.84-1.27-5.24-2.55-.3-.42-.3-.87-.12-1.13.17-.26.83-.52 1.2-.13.37.4 2.1 1.97 3.82 2.07 1.72.1 3.44.21 5.74-1.96 2.3-2.18 3.46-2.34 4.66-2.6z" fill="#fff"/><mask id="ka" fill="#fff"><path d="M29.15 27.82V9.16c0-.58-.38-.65-.53-.66h-.5c-.5 0-.54.56-.54.74v18.6a2.68 2.68 0 01-.82 1.89c-.81.7-1.62.6-1.62.6s-20.18 0-20.66-.03a2.3 2.3 0 01-1.6-1c-.57-.8-.46-1.85-.46-1.85V9.3c0-.83-.67-.8-.67-.8h-.3c-.54 0-.6.58-.6.77v18.54c0 1.33.46 2.4 1.55 3.33 1.1.94 2.38.86 2.38.86h20.58c.86 0 1.98-.42 2.91-1.56.93-1.14.88-2.63.88-2.63z"/></mask><path d="M29.15 27.82V9.16c0-.58-.38-.65-.53-.66h-.5c-.5 0-.54.56-.54.74v18.6a2.68 2.68 0 01-.82 1.89c-.81.7-1.62.6-1.62.6s-20.18 0-20.66-.03a2.3 2.3 0 01-1.6-1c-.57-.8-.46-1.85-.46-1.85V9.3c0-.83-.67-.8-.67-.8h-.3c-.54 0-.6.58-.6.77v18.54c0 1.33.46 2.4 1.55 3.33 1.1.94 2.38.86 2.38.86h20.58c.86 0 1.98-.42 2.91-1.56.93-1.14.88-2.63.88-2.63z" fill="#fff"/><path d="M29.15 27.82h-20v.38l.01.39 19.99-.77zM28.62 8.5l.71-19.99h-.71v20zm-1.04.74l-20-.15v.15h20zm0 .06h-20 20zm0 18.54l-19.99-.76v.02l19.99.74zm-.82 1.89l13.03 15.16.44-.37.4-.4-13.87-14.4zm-1.62.6l2.26-19.87-1.13-.13h-1.13v20zM4.48 30.3l-3.4 19.71 1.14.2 1.15.06L4.48 30.3zm-1.6-1l-16.35 11.52L2.89 29.3zm-.46-1.85l19.9 2.1.1-1.05v-1.05h-20zM1.75 8.5v20h.39l.38-.01L1.75 8.5zm-.9.78l-20-.29v.29h20zM2.4 31.15l-13.02 15.18L2.4 31.15zm2.38.86V12h-.65l-.64.04L4.78 32zm23.5-1.56L43.75 43.1 28.28 30.45zm20.87-2.63V9.16h-40v18.66h40zm0-18.66a20.54 20.54 0 00-19.81-20.64L27.9 28.48A19.46 19.46 0 019.15 9.16h40zM28.62-11.5h-.5v40h.5v-40zm-.5 0A20.47 20.47 0 009.42.62c-1.8 4-1.83 7.56-1.84 8.47l40 .3c0 .73-.02 3.91-1.67 7.6a19.47 19.47 0 01-17.8 11.51v-40zM7.58 9.24v.05h40v-.04h-40zm0 .05v.01h40-40zm0 .02v10.51a8367.03 8367.03 0 010 7.25c0 .79 0 .45.01.01l39.97 1.52c.02-.51.02-1.37.02-1.45a1362.33 1362.33 0 000-7.34V9.3l-40 .02zm.01 17.79c.05-1.35.38-7.05 5.28-11.77l27.77 28.8a22.68 22.68 0 006.92-15.54L7.6 27.09zm6.13-12.54a17.51 17.51 0 0112.43-4.2 19.31 19.31 0 011.17.1h.06s.02 0-2.24 19.87a2063.4 2063.4 0 00-2.24 19.88h.05a14.8 14.8 0 001.25.1 21.38 21.38 0 005.56-.45A22.49 22.49 0 0039.8 44.9L13.72 14.56zm11.42 15.77v-20h-3.16a17380.76 17380.76 0 01-16.39-.02c-1.07 0-.61 0 0 .03L3.38 50.27c.97.06 7.17.06 11.6.06h10.16v-20zM7.88 10.6c.43.08 2.52.43 4.93 1.66 2.57 1.3 4.78 3.2 6.4 5.51l-32.67 23.07c5 7.08 11.87 8.72 14.55 9.18L7.88 10.6zm11.34 7.18a17.34 17.34 0 013.13 11.4 18.52 18.52 0 01-.03.28v.08c0 .01 0 .02-19.9-2.08l-19.89-2.09v.01a19.73 19.73 0 00-.11 1.97 22.66 22.66 0 004.12 13.48l32.68-23.05zm3.2 9.68V9.3h-40v18.14h40zm0-18.14A20.74 20.74 0 002.78-11.47a20.44 20.44 0 00-1.76-.01H1c-.01 0-.03 0 .75 19.98.77 19.99.76 19.99.75 19.99h-.07a28.57 28.57 0 01-1.65-.01 19.35 19.35 0 01-16-10.04 19.03 19.03 0 01-2.36-9.13h40zM1.75-11.49h-.3v40h.3v-40zm-.3 0A20.52 20.52 0 00-17.18.34 21.17 21.17 0 00-19.14 9l40 .58c-.02.76-.05 4-1.8 7.72A19.44 19.44 0 011.45 28.5v-40zm-20.6 20.77v18.54h40V9.29h-40zm0 18.54c0 7.06 2.92 13.7 8.53 18.51l26.05-30.35a15.63 15.63 0 014 5.37 15.72 15.72 0 011.42 6.47h-40zm8.53 18.51a23.59 23.59 0 0016.56 5.65H6l.03-.01h.01c.01 0 .02 0-1.26-19.96C3.49 12.05 3.5 12.05 3.5 12.05h.04A429.61 429.61 0 014.5 12a17.44 17.44 0 013.65.36c1.88.4 4.64 1.34 7.29 3.6l-26.05 30.36zm15.4-14.32v20h20.63l-.1-40H4.77v20zM25.4 52c7.1-.02 13.8-3.34 18.35-8.9L12.8 17.8A16.17 16.17 0 0125.3 12l.11 40zm18.36-8.91a23.97 23.97 0 005.38-15.11 21.8 21.8 0 00-.02-.94l-19.98.77-19.99.76v-.04a18.38 18.38 0 01.01-1.62 16.04 16.04 0 013.6-9.11l31 25.29z" fill="#fff" mask="url(#ka)"/></svg><svg viewBox="0 0 2000 2000" id="sprite" xmlns="http://www.w3.org/2000/svg"/></svg>