<svg xmlns="http://www.w3.org/2000/svg" viewBox="0 0 34 34"><path d="M2 8.34c0-.86.55-1.32 1.66-1.38l4.25.02c.28 0 .47.13.57.38.44 1.26.93 2.34 1.47 3.25a39.4 39.4 0 0 0 2.13 3.16c.07.15.2.23.37.23.13 0 .24-.06.31-.18l.09-.28.03-4.35c0-.3-.08-.5-.25-.6-.16-.1-.46-.18-.9-.23-.34-.05-.51-.23-.51-.55 0-.07.01-.12.03-.15.4-1.09 1.54-1.63 3.42-1.63l1.6-.03c.73 0 1.33.16 1.8.48.48.32.72.82.72 1.5v5.72a.7.7 0 0 0 .37.12c.28 0 .53-.15.74-.45 2.1-2.58 3.22-4.31 3.4-5.18 0-.02.01-.06.05-.13.14-.25.35-.47.66-.65.3-.19.57-.31.8-.38a.63.63 0 0 1 .26-.05h4.42l.29.03a1 1 0 0 1 .88.47c.08.1.13.21.16.33a2.25 2.25 0 0 1 .07.55v.18a5.9 5.9 0 0 1-1.01 2.2c-.55.78-1.24 1.62-2.07 2.53-.84.9-1.36 1.5-1.57 1.78-.18.2-.26.39-.26.56 0 .13.07.28.23.45l4.17 4.63c.22.26.34.56.34.88 0 .38-.17.7-.52.95-.34.25-.75.4-1.22.43l-.49.02h-4.34c-.02 0-.06 0-.11.02l-.12.01c-.42 0-.8-.16-1.17-.48l-2.68-2.97c-.1-.11-.23-.22-.4-.32-.08.27-.18.65-.3 1.15l-.27 1.09-.09.42c-.19.59-.59.94-1.2 1.06l-.4.02h-2.8c-1.57 0-3.15-.63-4.72-1.9a19.62 19.62 0 0 1-4.24-4.95 46.12 46.12 0 0 1-3.5-7.05A1.8 1.8 0 0 1 2 8.34zm17.16 6.51c-.4 0-.76-.1-1.09-.29-.32-.19-.48-.45-.48-.79V8c0-.34-.1-.58-.29-.72-.19-.14-.52-.21-1-.21l-1.63.05c-.81 0-1.43.12-1.85.37.84.36 1.26.93 1.26 1.71v4.43c-.04.42-.23.77-.58 1.04-.34.28-.72.42-1.14.42-.57 0-1-.24-1.31-.73a25.68 25.68 0 0 1-3.31-5.63l-.26-.66-3.8-.02c-.24 0-.38.01-.41.03-.03.03-.04.1-.04.22 0 .15.02.3.05.48l.6 1.4c1.6 3.64 3.34 6.51 5.21 8.6 1.88 2.1 3.72 3.15 5.53 3.15h2.85c.12 0 .2-.03.26-.09s.1-.17.14-.34l.06-.25.54-2.21c.15-.3.29-.5.4-.6.21-.2.46-.28.74-.28.46 0 .93.24 1.4.73l2.43 2.71c.15.22.31.33.48.33h4.71c.57 0 .86-.13.86-.38a.44.44 0 0 0-.09-.25l-4.13-4.55a1.65 1.65 0 0 1-.49-1.13c0-.4.15-.8.46-1.16.24-.34.72-.9 1.44-1.67.71-.78 1.34-1.51 1.87-2.19a6 6 0 0 0 1.05-1.85l.09-.33a.35.35 0 0 1-.03-.16c0-.07 0-.14-.03-.19h-4.48c-.28.1-.51.25-.68.45l-.18.48c-.47 1.16-1.72 2.94-3.73 5.36-.4.33-.87.5-1.4.5z" fill="#666"/></svg>
