<svg xmlns="http://www.w3.org/2000/svg" viewBox="0 0 36 36"><circle cx="23.2" cy="12.33" fill="#fff" r="1.09"/><circle cx="12.33" cy="12.33" fill="#fff" r="1.09"/><circle cx="12.33" cy="25.35" fill="#fff" r="1.09"/><circle cx="17.77" cy="27.52" fill="#fff" r="1.09"/><circle cx="9.07" cy="18.77" fill="#fff" r="1.09"/><circle cx="26.47" cy="18.77" fill="#fff" r="1.09"/><circle cx="23.2" cy="25.35" fill="#fff" r="1.09"/><mask id="a" fill="#fff"><path fill-rule="evenodd" clip-rule="evenodd" d="M22.92 30.06c.41-.2.9-.13 1.22.2l1.82 1.87c.27.27.71.27.98 0a.68.68 0 0 0 0-.95l-1.36-1.4c-.42-.43-.36-1.14.1-1.55A12.75 12.75 0 0 0 30 18.61C30 11.65 24.52 6 17.77 6 11 6 5.54 11.65 5.54 18.61c0 3.82 1.64 7.24 4.23 9.55.45.4.51 1.11.1 1.55l-1.44 1.47a.68.68 0 0 0 .98.95l1.87-1.93c.32-.33.82-.4 1.23-.2a11.88 11.88 0 0 0 10.41.06zm-5.15-.23c6 0 10.87-5.02 10.87-11.22 0-6.19-4.87-11.2-10.87-11.2-6 0-10.88 5.01-10.88 11.2 0 6.2 4.87 11.22 10.88 11.22zM17 18.3V10.94a.78.78 0 0 1 1.56 0v8.18a.8.8 0 0 1-.8.8.76.76 0 0 1-.76-.75V18.3z"/></mask><path fill-rule="evenodd" clip-rule="evenodd" d="M22.92 30.06c.41-.2.9-.13 1.22.2l1.82 1.87c.27.27.71.27.98 0a.68.68 0 0 0 0-.95l-1.36-1.4c-.42-.43-.36-1.14.1-1.55A12.75 12.75 0 0 0 30 18.61C30 11.65 24.52 6 17.77 6 11 6 5.54 11.65 5.54 18.61c0 3.82 1.64 7.24 4.23 9.55.45.4.51 1.11.1 1.55l-1.44 1.47a.68.68 0 0 0 .98.95l1.87-1.93c.32-.33.82-.4 1.23-.2a11.88 11.88 0 0 0 10.41.06zm-5.15-.23c6 0 10.87-5.02 10.87-11.22 0-6.19-4.87-11.2-10.87-11.2-6 0-10.88 5.01-10.88 11.2 0 6.2 4.87 11.22 10.88 11.22zM17 18.3V10.94a.78.78 0 0 1 1.56 0v8.18a.8.8 0 0 1-.8.8.76.76 0 0 1-.76-.75V18.3z" fill="#fff"/><path d="M11.28 30.2l2.87 2.79-2.87-2.8zm1.23-.2l1.77-3.58L12.5 30zm-3.1 2.13l-2.87-2.8 2.86 2.8zm-.98-.95l2.86 2.79-2.86-2.8zm17.15-1.4l-2.86 2.8 2.86-2.8zm.1-1.55l-2.63-3 2.63 3zm-15.9-.07L7.1 31.15l2.66-2.99zm.08 1.55L7 26.9l2.86 2.8zm17.08 1.47l2.87-2.8-2.87 2.8zm-.98.95l2.87-2.8-2.87 2.8zm-1.82-1.88l-2.87 2.8 2.87-2.8zm-1.22-.2l-1.73-3.6 1.73 3.6zm-1.65 3l1.83 1.87 5.73-5.58L27 27.46l-5.73 5.58zm8.54-4.66l-1.36-1.4-5.73 5.59 1.36 1.39 5.73-5.58zm-1.5 2.85A16.75 16.75 0 0 0 34 18.61h-8a8.75 8.75 0 0 1-2.95 6.61l5.27 6.02zM34 18.61C34 9.56 26.85 2 17.77 2v8C22.2 10 26 13.74 26 18.61h8zM17.77 2C8.69 2 1.54 9.56 1.54 18.61h8c0-4.87 3.8-8.61 8.23-8.61V2zM1.54 18.61c0 4.98 2.14 9.48 5.57 12.54l5.32-5.97a8.75 8.75 0 0 1-2.9-6.57h-8zM7 26.91L5.56 28.4l5.73 5.58 1.44-1.47L7 26.9zm5.27 8.01l1.88-1.93-5.73-5.58-1.88 1.93 5.73 5.58zm-1.52-1.32a15.88 15.88 0 0 0 7.02 1.63v-8a7.88 7.88 0 0 1-3.5-.81l-3.52 7.18zm7.02 1.63c2.45 0 4.79-.56 6.88-1.57l-3.46-7.2c-1.04.5-2.2.77-3.42.77v8zm0-1.4c8.33 0 14.87-6.93 14.87-15.22h-8c0 4.1-3.2 7.22-6.87 7.22v8zM32.64 18.6c0-8.28-6.54-15.2-14.87-15.2v8c3.68 0 6.87 3.1 6.87 7.2h8zM17.77 3.41c-8.33 0-14.88 6.92-14.88 15.2h8c0-4.1 3.2-7.2 6.88-7.2v-8zM2.89 18.6c0 8.29 6.55 15.22 14.88 15.22v-8c-3.68 0-6.88-3.11-6.88-7.22h-8zm11.68-.31v.54h8v-.54h-8zm0 .54v.28h8v-.28h-8zm6.44.33v-.33h-8v.33h8zm0-.33v-.54h-8v.54h8zm0-.54v-3.8h-8v3.8h8zm0-3.8v-3.56h-8v3.56h8zm-6.44-3.56v3.56h8v-3.56h-8zm0 3.56v3.8h8v-3.8h-8zm3.22-8.34A4.78 4.78 0 0 0 13 10.94h8a3.22 3.22 0 0 1-3.22 3.22v-8zm-3.22 12.96a3.2 3.2 0 0 1 3.2-3.2v8a4.8 4.8 0 0 0 4.8-4.8h-8zM14.15 33c-1 1.02-2.4 1.1-3.4.6l3.53-7.17a5.06 5.06 0 0 0-5.86.99l5.73 5.58zm-8.59 1.93a4.68 4.68 0 0 0 6.71 0l-5.73-5.58a3.32 3.32 0 0 1 4.75 0l-5.73 5.58zm0-6.53a4.68 4.68 0 0 0 0 6.53l5.73-5.58a3.32 3.32 0 0 1 0 4.63l-5.73-5.58zm22.89-1.4a2.93 2.93 0 0 1-.13 4.25l-5.27-6.02a5.08 5.08 0 0 0-.33 7.36l5.73-5.59zM17.79 14.16a3.22 3.22 0 0 1-3.22-3.22h8a4.78 4.78 0 0 0-4.78-4.78v8zM7.11 31.15A2.93 2.93 0 0 1 7 26.9l5.73 5.59a5.07 5.07 0 0 0-.3-7.32l-5.32 5.97zm22.7 3.77a4.68 4.68 0 0 0 0-6.53l-5.73 5.58a3.32 3.32 0 0 1 0-4.63l5.73 5.58zm-6.71 0a4.68 4.68 0 0 0 6.7 0l-5.72-5.58a3.32 3.32 0 0 1 4.75 0l-5.73 5.58zm-5.33-19A3.24 3.24 0 0 1 21 19.18h-8a4.76 4.76 0 0 0 4.76 4.76v-8zM27 27.47a5.06 5.06 0 0 0-5.8-1l3.45 7.2c-1 .49-2.4.4-3.38-.62L27 27.46z" fill="#fff" mask="url(#a)"/><path fill="#fff" d="M17 7V3h1.5v4z"/><rect x="10" y="3" width="15.5" height="1.5" rx=".75" fill="#fff"/></svg>
